<?xml version="1.0" standalone="no"?>
<!DOCTYPE svg PUBLIC "-//W3C//DTD SVG 20010904//EN"
 "http://www.w3.org/TR/2001/REC-SVG-20010904/DTD/svg10.dtd">
<svg version="1.0" xmlns="http://www.w3.org/2000/svg"
 width="512.000000pt" height="512.000000pt" viewBox="0 0 512.000000 512.000000"
 preserveAspectRatio="xMidYMid meet">
<metadata>
Created by potrace 1.11, written by Peter Selinger 2001-2013
</metadata>
<g transform="translate(0.000000,512.000000) scale(0.100000,-0.100000)"
fill="#000000" stroke="none">
<path d="M3815 4847 c-186 -161 -386 -384 -531 -592 -104 -149 -234 -365 -234
-388 0 -6 148 -91 266 -153 89 -47 177 -84 464 -194 41 -16 127 -49 190 -73
310 -120 363 -139 470 -166 155 -40 282 -63 291 -54 13 13 91 304 115 428 2
11 6 31 9 45 3 14 8 41 11 60 2 19 7 46 10 60 2 14 7 43 9 65 3 22 7 56 10 76
16 106 25 229 30 402 l5 138 -33 14 c-63 29 -998 385 -1010 385 -7 0 -39 -24
-72 -53z"/>
<path d="M1220 4854 c0 -3 14 -65 31 -138 53 -224 87 -369 100 -428 6 -31 15
-61 18 -66 5 -7 543 -139 645 -158 16 -3 34 -8 39 -11 5 -3 6 4 2 16 -3 11 -8
33 -11 48 -3 16 -16 84 -30 153 -14 69 -28 136 -30 150 -8 42 -56 275 -58 277
-1 1 -233 57 -286 68 -8 2 -46 11 -85 20 -38 9 -77 18 -85 20 -8 2 -62 15
-119 29 -107 27 -131 30 -131 20z"/>
<path d="M885 4598 c-83 -105 -165 -211 -183 -234 l-33 -42 56 -278 c30 -154
57 -290 60 -303 2 -13 6 -25 8 -28 3 -2 93 100 200 227 l195 231 -15 62 c-43
181 -116 495 -120 517 -2 14 -7 28 -11 32 -4 4 -75 -79 -157 -184z"/>
<path d="M1175 3864 c-77 -91 -147 -174 -155 -184 -42 -48 -70 -84 -67 -86 1
-1 31 -5 67 -9 36 -4 67 -8 70 -10 3 -2 32 -6 64 -10 33 -3 62 -8 65 -9 3 -2
33 -7 66 -10 33 -4 86 -11 117 -17 44 -7 72 -6 125 6 126 29 158 43 205 93
151 161 228 252 216 256 -7 3 -42 12 -78 21 -36 9 -72 18 -80 20 -8 2 -46 11
-85 19 -38 9 -126 29 -195 46 -213 53 -173 68 -335 -126z"/>
<path d="M3030 3643 c0 -10 11 -94 25 -188 14 -93 27 -186 30 -205 3 -19 10
-67 17 -107 l12 -72 90 -94 91 -95 215 -82 c118 -45 253 -97 300 -115 47 -18
147 -57 224 -86 l138 -53 57 60 c31 33 85 94 121 134 36 40 74 83 85 95 61 64
185 204 185 208 0 5 -106 32 -170 43 -49 9 -307 84 -430 124 -330 110 -700
276 -957 432 -32 19 -33 19 -33 1z"/>
<path d="M2255 3514 c-33 -8 -73 -16 -90 -19 -151 -27 -587 -138 -765 -194
-202 -64 -513 -178 -539 -198 -5 -4 53 -60 144 -138 91 -79 409 -396 510 -509
44 -49 85 -94 90 -100 32 -34 152 -185 220 -276 43 -58 80 -107 82 -109 3 -4
176 42 213 56 8 3 20 7 26 8 6 2 125 37 265 79 140 42 297 90 349 105 52 16
133 40 180 54 185 55 455 139 458 142 4 3 -134 203 -147 215 -3 3 -32 37 -63
75 -125 154 -392 422 -594 595 -126 108 -272 230 -275 229 -2 -1 -31 -8 -64
-15z"/>
<path d="M641 2983 c-8 -21 -21 -56 -31 -78 -10 -22 -34 -85 -54 -140 -20 -55
-40 -107 -43 -115 -3 -8 -7 -19 -9 -25 -1 -5 -16 -48 -32 -95 -53 -150 -134
-439 -158 -564 -2 -12 -8 -43 -14 -71 -12 -64 -19 -102 -25 -145 -3 -19 -7
-44 -10 -55 -3 -17 -13 -130 -20 -225 -3 -48 135 -284 263 -450 165 -213 417
-451 707 -669 119 -90 141 -102 142 -78 0 12 76 300 113 427 10 36 44 162 75
280 31 118 65 244 75 280 10 36 28 103 40 150 12 47 31 116 42 154 11 38 21
76 23 85 2 9 14 55 26 102 l23 86 -64 89 c-226 314 -579 687 -972 1028 -42 36
-78 66 -80 66 -2 0 -10 -17 -17 -37z"/>
<path d="M3105 2129 c-214 -65 -406 -123 -425 -128 -19 -5 -96 -27 -170 -50
-74 -23 -173 -53 -220 -67 -160 -49 -175 -53 -255 -77 l-80 -25 -54 -198 c-92
-339 -368 -1369 -367 -1371 1 0 50 7 109 17 59 11 120 21 135 23 15 3 57 12
95 21 37 9 80 18 97 21 76 13 321 82 469 131 186 62 377 138 539 214 l109 52
26 56 c80 176 190 499 222 652 3 15 24 102 30 130 11 45 61 291 96 468 21 112
42 215 45 228 3 13 2 24 -2 23 -5 -1 -184 -55 -399 -120z"/>
</g>
</svg>
