<?xml version="1.0" standalone="no"?>
<!DOCTYPE svg PUBLIC "-//W3C//DTD SVG 20010904//EN"
 "http://www.w3.org/TR/2001/REC-SVG-20010904/DTD/svg10.dtd">
<svg version="1.0" xmlns="http://www.w3.org/2000/svg"
 width="512.000000pt" height="512.000000pt" viewBox="0 0 512.000000 512.000000"
 preserveAspectRatio="xMidYMid meet">
<metadata>
Created by potrace 1.11, written by Peter Selinger 2001-2013
</metadata>
<g transform="translate(0.000000,512.000000) scale(0.100000,-0.100000)"
fill="#000000" stroke="none">
<path d="M3834 4868 c-290 -248 -545 -561 -738 -902 l-56 -100 93 -54 c197
-116 287 -157 737 -330 374 -145 495 -187 620 -216 85 -21 176 -40 201 -43
l47 -6 16 55 c113 389 176 794 176 1129 l0 108 -52 19 c-68 26 -958 368 -979
376 -10 4 -33 -8 -65 -36z"/>
<path d="M1225 4812 c8 -31 42 -178 76 -327 34 -148 63 -271 63 -272 3 -5 690
-162 693 -159 6 6 -123 635 -131 643 -3 3 -155 41 -338 84 -183 44 -343 81
-355 84 -21 5 -21 4 -8 -53z"/>
<path d="M855 4568 c-99 -127 -181 -239 -183 -249 -3 -19 103 -570 116 -602 6
-14 25 3 98 90 50 60 139 165 198 235 l108 127 -74 316 c-40 173 -75 315 -78
314 -3 0 -86 -104 -185 -231z"/>
<path d="M1280 3996 c-19 -24 -102 -123 -184 -220 -82 -97 -147 -179 -144
-181 3 -3 122 -22 264 -42 l259 -36 107 28 106 28 119 130 c132 146 157 176
152 182 -3 2 -467 114 -619 149 -21 5 -31 -2 -60 -38z"/>
<path d="M3024 3633 c3 -16 24 -149 46 -296 l39 -268 87 -92 86 -92 446 -172
447 -172 21 22 c11 12 103 114 204 227 101 113 194 217 208 232 l24 27 -38 9
c-22 5 -99 24 -173 41 -428 103 -905 290 -1275 499 -60 34 -113 62 -118 62 -5
0 -7 -12 -4 -27z"/>
<path d="M2120 3490 c-401 -88 -762 -190 -1020 -287 -187 -72 -250 -98 -248
-104 2 -4 48 -46 103 -94 156 -136 559 -546 679 -690 59 -71 146 -180 192
-242 l84 -112 47 14 c599 179 1422 427 1435 432 14 7 5 24 -55 110 -114 160
-238 305 -412 478 -228 228 -582 536 -614 534 -9 0 -95 -18 -191 -39z"/>
<path d="M589 2863 c-181 -462 -295 -886 -335 -1251 l-18 -157 52 -100 c63
-122 139 -239 240 -365 87 -110 338 -363 462 -467 137 -114 354 -274 361 -265
4 4 100 356 214 782 114 426 209 780 212 786 5 14 -175 255 -307 409 -182 213
-773 785 -810 785 -5 0 -36 -71 -71 -157z"/>
<path d="M2720 2018 c-421 -127 -766 -232 -767 -233 -3 -1 -423 -1566 -423
-1573 0 -11 381 62 565 109 285 72 667 209 895 322 l105 52 41 95 c64 147 147
397 197 595 40 155 177 818 177 853 0 6 -6 12 -12 11 -7 0 -357 -104 -778
-231z"/>
</g>
</svg>
